<svg xmlns="http://www.w3.org/2000/svg" viewBox="0 0 44.09 33.4"><defs><style>.cls-1{fill:#4d4d4d;}</style></defs><g id="Layer_2" data-name="Layer 2"><g id="Слой_1" data-name="Слой 1"><path class="cls-1" d="M35.45,27.33a2.4,2.4,0,1,0,2.4-2.39A2.4,2.4,0,0,0,35.45,27.33Zm2.4,1.09a1.09,1.09,0,1,1,1.08-1.09A1.09,1.09,0,0,1,37.85,28.42Z"/><path class="cls-1" d="M18.11,4.55H14.85V13.4h2.91A4.09,4.09,0,0,0,21,12.13,4.53,4.53,0,0,0,22.11,9,4.76,4.76,0,0,0,21,5.83,3.66,3.66,0,0,0,18.11,4.55Zm1.29,6.73a2.35,2.35,0,0,1-1.8.79h-.94V5.83h1.13a2,2,0,0,1,1.7.89,3.63,3.63,0,0,1,.65,2.18A3.41,3.41,0,0,1,19.4,11.28Z"/><path class="cls-1" d="M11.85,9l-.36-.16.35-.19a1.8,1.8,0,0,0,.53-.44,2.06,2.06,0,0,0,.48-1.37A2.06,2.06,0,0,0,12,5.06a3.55,3.55,0,0,0-2.14-.64,3.55,3.55,0,0,0-2.14.64A2.78,2.78,0,0,0,6.54,6.71v0H8.15a1.7,1.7,0,0,1,1.63-1A1.66,1.66,0,0,1,10.83,6a1.1,1.1,0,0,1,.4.93,1.06,1.06,0,0,1-.48,1,2.14,2.14,0,0,1-1.2.32H8.73V9.5H9.82a1.64,1.64,0,0,1,1.23.43,1.4,1.4,0,0,1,.41,1,1.22,1.22,0,0,1-.47.95,1.88,1.88,0,0,1-1.24.39A1.84,1.84,0,0,1,8,11.17H6.27v0a3.11,3.11,0,0,0,1.16,1.64,3.69,3.69,0,0,0,2.32.71,3.79,3.79,0,0,0,2.44-.73,2.32,2.32,0,0,0,.92-1.88,2.11,2.11,0,0,0-.53-1.43A2,2,0,0,0,11.85,9Z"/><path class="cls-1" d="M1.09,18H27.3a1,1,0,0,0,1.05-1V1A1,1,0,0,0,27.3,0H1.09A1,1,0,0,0,0,1V16.91A1,1,0,0,0,1.09,18Zm1-15.87H26.26V15.87H2.13Z"/><path class="cls-1" d="M41.88,0h-8.8a2.21,2.21,0,0,0-2.2,2.21V20.19H2.21A2.21,2.21,0,0,0,0,22.4v8.8a2.21,2.21,0,0,0,2.21,2.2H41.88a2.21,2.21,0,0,0,2.21-2.2V2.25A2.21,2.21,0,0,0,41.88,0ZM42,31.32H2.08v-9H7.59v3.95a.82.82,0,0,0,.84.82A.87.87,0,0,0,9,26.84a.79.79,0,0,0,.27-.61V22.28h3.61v1.93a.84.84,0,0,0,.27.61.76.76,0,0,0,.54.23.86.86,0,0,0,.86-.84V22.28h5.22v3.95a.81.81,0,0,0,.83.82.87.87,0,0,0,.57-.21.79.79,0,0,0,.27-.61V22.28h4v1.93a.84.84,0,0,0,.27.61.78.78,0,0,0,.54.23.86.86,0,0,0,.86-.84V22.28h4v3.95a.82.82,0,0,0,.84.82.89.89,0,0,0,.57-.21.79.79,0,0,0,.27-.61V22.08h4.45a.81.81,0,0,0,.82-.84.91.91,0,0,0-.21-.57.79.79,0,0,0-.61-.26H33V17.15h1.86a.85.85,0,0,0,.61-.26.82.82,0,0,0,.23-.58.86.86,0,0,0-.84-.83H33v-2.3h4.25a.81.81,0,0,0,.82-.84.89.89,0,0,0-.21-.57.79.79,0,0,0-.61-.27H33V8.87h1.86a.86.86,0,0,0,.61-.27A.78.78,0,0,0,35.66,8a.86.86,0,0,0-.84-.83H33V4.9h4.25A.81.81,0,0,0,38,4.06a.87.87,0,0,0-.21-.57.79.79,0,0,0-.61-.27H33V2.13h9Z"/></g></g></svg>