<svg xmlns="http://www.w3.org/2000/svg" viewBox="0 0 46.88 36.8"><defs><style>.cls-1{fill:#e6e6e6;}</style></defs><g id="Layer_2" data-name="Layer 2"><g id="Слой_1" data-name="Слой 1"><path class="cls-1" d="M29.51,15a3.44,3.44,0,0,0-5.87,2.46,3.36,3.36,0,0,0,1,2.43,3.41,3.41,0,0,0,2.43,1A3.44,3.44,0,0,0,29.51,15ZM27.1,19.65v-.12a2.11,2.11,0,0,1-1.48-.61A2.07,2.07,0,0,1,25,17.44,2.13,2.13,0,0,1,25.6,16a2.16,2.16,0,0,1,1.48-.62,2.1,2.1,0,0,1,2.1,2.09,2,2,0,0,1-.61,1.49,2.14,2.14,0,0,1-1.47.62Z"/><path class="cls-1" d="M27.09,11.3a6.13,6.13,0,1,0,6.13,6.13A6.14,6.14,0,0,0,27.09,11.3Zm0,10.75a4.62,4.62,0,1,1,4.62-4.62A4.63,4.63,0,0,1,27.09,22.05Z"/><path class="cls-1" d="M10.15,30h0A16.11,16.11,0,0,1,14,27.26a9.63,9.63,0,0,1,4.78-1.16,9.71,9.71,0,0,1,4.82,1.18,16,16,0,0,1,3.8,2.7c.31.29.66.67,1,1.06,1.31,1.4,2.42,2.58,3.52,2.58h0a1.34,1.34,0,0,0,.35,0c2.53-.63,4.35-3.55,5-8,1-7-1.07-16.09-6.32-19.27-.86-.68-4.19-2.47-11.76,2.43a.8.8,0,0,1-.88,0C10.79,3.83,7.45,5.61,6.6,6.27,1.33,9.48-.77,18.59.25,25.56c.65,4.47,2.47,7.39,5,8,1.21.3,2.48-1.06,3.84-2.51C9.48,30.65,9.84,30.27,10.15,30Zm-2.39-.15a14.1,14.1,0,0,1-2,1.94l-.07,0-.08,0c-1.68-.52-3-2.94-3.51-6.48C1.13,19,3,10.51,7.63,7.77l.11-.09c.11-.09,2.88-2.13,10.62,3.24l.07,0a.76.76,0,0,0,.2.08l.14.05.14-.05a.87.87,0,0,0,.25-.11l.07,0c7.71-5.36,10.6-3.19,10.62-3.16l.15.1c4.57,2.7,6.41,11.17,5.5,17.47C35,28.81,33.67,31.23,32,31.78l-.08,0-.07,0a15.14,15.14,0,0,1-2-1.93c-.41-.44-.8-.85-1.16-1.19-3.93-3.68-7.46-4.23-9.21-4.23l-.61,0c-1.52-.11-5.47.06-9.9,4.21C8.56,29,8.17,29.39,7.76,29.83Z"/><path class="cls-1" d="M5.74,18.27H9.27V21.8a.84.84,0,0,0,1.68,0V18.27h3.53a.84.84,0,0,0,0-1.68H11V13.06a.84.84,0,0,0-1.68,0v3.53H5.74a.84.84,0,0,0,0,1.68Z"/><path class="cls-1" d="M44.71,0H5A2.17,2.17,0,0,0,2.86,2.17V6.91l2-2L4.84,2H5L44.87,2l0,29.3H37.52l-1.58,2h8.77a2.17,2.17,0,0,0,2.17-2.17V2.17A2.17,2.17,0,0,0,44.71,0Z"/><polygon class="cls-1" points="28.52 33.29 26.18 31.28 11.45 31.28 9.47 33.29 28.52 33.29"/><path class="cls-1" d="M38.55,34.72H15.35a1,1,0,0,0,0,2.08h23.2a1,1,0,0,0,0-2.08Z"/></g></g></svg>