<svg xmlns="http://www.w3.org/2000/svg" viewBox="0 0 44.09 33.36"><defs><style>.cls-1{fill:#e6e6e6;}</style></defs><g id="Layer_2" data-name="Layer 2"><g id="Слой_1" data-name="Слой 1"><path class="cls-1" d="M21.27,7.35H39.38a1,1,0,0,0,0-1.93H21.27a1,1,0,0,0,0,1.93Z"/><path class="cls-1" d="M13,7.35h5a1,1,0,0,0,0-1.93H13a1,1,0,0,0,0,1.93Z"/><path class="cls-1" d="M7.06,8.78A2.4,2.4,0,1,0,4.67,6.39,2.4,2.4,0,0,0,7.06,8.78Zm0-3.48A1.09,1.09,0,1,1,6,6.39,1.09,1.09,0,0,1,7.06,5.3Z"/><path class="cls-1" d="M42.23,0H1.86A1.87,1.87,0,0,0,0,1.86V31.5a1.87,1.87,0,0,0,1.86,1.86H42.23a1.87,1.87,0,0,0,1.86-1.86V1.86A1.87,1.87,0,0,0,42.23,0ZM42,31.28H2.08V12.59H7.46V26.4a.84.84,0,0,0,.83.84h1a.84.84,0,0,0,.84-.84V12.59h3.12V26.4a.84.84,0,0,0,.84.84h1A.84.84,0,0,0,16,26.4V12.59H22.2V26.4a.84.84,0,0,0,.83.84h1a.84.84,0,0,0,.84-.84V12.59H28V26.4a.84.84,0,0,0,.84.84h1a.84.84,0,0,0,.83-.84V12.59h3.12V26.4a.85.85,0,0,0,.84.84h1a.85.85,0,0,0,.84-.84V12.59H42ZM42,10.5H2.08V2.08H42Z"/></g></g></svg>