<svg xmlns="http://www.w3.org/2000/svg" viewBox="0 0 44.09 38.14"><defs><style>.cls-1{fill:#4d4d4d;}</style></defs><g id="Layer_2" data-name="Layer 2"><g id="Слой_1" data-name="Слой 1"><path class="cls-1" d="M37.6,8.78A2.39,2.39,0,1,0,40,11.17,2.39,2.39,0,0,0,37.6,8.78Zm0,3.48a1.09,1.09,0,1,1,1.09-1.09A1.08,1.08,0,0,1,37.6,12.26Z"/><path class="cls-1" d="M21.62,14.17A6.87,6.87,0,1,0,28.49,21,6.88,6.88,0,0,0,21.62,14.17Zm0,11.66A4.79,4.79,0,1,1,26.41,21,4.79,4.79,0,0,1,21.62,25.83Z"/><path class="cls-1" d="M21.62,10.45A10.59,10.59,0,1,0,32.21,21,10.6,10.6,0,0,0,21.62,10.45Zm0,19.1A8.51,8.51,0,1,1,30.13,21,8.51,8.51,0,0,1,21.62,29.55Z"/><path class="cls-1" d="M42.23,4.78H31.1L27.1.66A2.47,2.47,0,0,0,25.54,0h-7A2.12,2.12,0,0,0,17,.64L13,4.78H1.86A1.87,1.87,0,0,0,0,6.65V36.28a1.86,1.86,0,0,0,1.86,1.86H42.23a1.86,1.86,0,0,0,1.86-1.86V6.65A1.87,1.87,0,0,0,42.23,4.78ZM18.14,2.07a.86.86,0,0,1,.63-.26h6.55a.86.86,0,0,1,.63.26l2.63,2.71H15.5Zm-16.06,34V6.87H42V36.06Z"/></g></g></svg>