<svg xmlns="http://www.w3.org/2000/svg" viewBox="0 0 475.98 40.29"><defs><style>.cls-1{fill:#4d4d4d;}</style></defs><g id="Layer_2" data-name="Layer 2"><g id="Слой_1" data-name="Слой 1"><g id="ded"><path class="cls-1" d="M37.6,8.78A2.39,2.39,0,1,0,40,11.17,2.39,2.39,0,0,0,37.6,8.78Zm0,3.48a1.09,1.09,0,1,1,1.09-1.09A1.08,1.08,0,0,1,37.6,12.26Z"/><path class="cls-1" d="M21.62,14.17A6.87,6.87,0,1,0,28.49,21,6.88,6.88,0,0,0,21.62,14.17Zm0,11.66A4.79,4.79,0,1,1,26.41,21,4.79,4.79,0,0,1,21.62,25.83Z"/><path class="cls-1" d="M21.62,10.45A10.59,10.59,0,1,0,32.21,21,10.6,10.6,0,0,0,21.62,10.45Zm0,19.1A8.51,8.51,0,1,1,30.13,21,8.51,8.51,0,0,1,21.62,29.55Z"/></g><path class="cls-1" d="M42.23,4.78H31.1L27.1.66A2.47,2.47,0,0,0,25.54,0h-7A2.12,2.12,0,0,0,17,.64L13,4.78H1.86A1.87,1.87,0,0,0,0,6.65V36.28a1.86,1.86,0,0,0,1.86,1.86H42.23a1.86,1.86,0,0,0,1.86-1.86V6.65A1.87,1.87,0,0,0,42.23,4.78ZM18.14,2.07a.86.86,0,0,1,.63-.26h6.55a.86.86,0,0,1,.63.26l2.63,2.71H15.5Zm-16.06,34V6.87H42V36.06Z"/><path class="cls-1" d="M137.24,10.43h0a2.51,2.51,0,0,0-2.47-.12l-8.36,4.13V7.07a1.87,1.87,0,0,0-1.87-1.86H84.18a1.86,1.86,0,0,0-1.86,1.86V36.7a1.87,1.87,0,0,0,1.86,1.87h40.36a1.87,1.87,0,0,0,1.87-1.87V27.83L134.77,32a2.58,2.58,0,0,0,2.47-.12,2.54,2.54,0,0,0,1.2-2.16V12.59A2.52,2.52,0,0,0,137.24,10.43ZM124.32,36.48H84.4V7.29h39.92Zm12-6.8a.45.45,0,0,1-.21.39.55.55,0,0,1-.24.07.54.54,0,0,1-.21-.05l-9.28-4.59V16.76l9.28-4.58a.43.43,0,0,1,.45,0h0a.43.43,0,0,1,.21.39Z"/><path class="cls-1" d="M90,26.88h0v6.86a1,1,0,1,0,1.92,0V26.89h0a2.39,2.39,0,0,0,0-4.35h0V10a1,1,0,0,0-1.92,0V22.39l0,.13,0,0a2.38,2.38,0,0,0-1.41,2.17A2.41,2.41,0,0,0,90,26.88Zm-.09-2.17A1.09,1.09,0,1,1,91,25.8,1.09,1.09,0,0,1,89.93,24.71Z"/><path class="cls-1" d="M97.24,21.24l0,0,0,.13V33.77a1,1,0,0,0,1.92,0V21.38l0-.12,0,0a2.38,2.38,0,0,0,0-4.34l0,0V10a1,1,0,0,0-1.92,0v6.86l0,0a2.38,2.38,0,0,0,0,4.34Zm-.1-2.18a1.09,1.09,0,1,1,1.08,1.09A1.08,1.08,0,0,1,97.14,19.06Z"/><path class="cls-1" d="M197.94,12.55H216a1,1,0,0,0,0-1.92h-18.1a1,1,0,0,0,0,1.92Z"/><path class="cls-1" d="M189.66,12.55h5a1,1,0,0,0,0-1.92h-5a1,1,0,0,0,0,1.92Z"/><path class="cls-1" d="M183.73,14a2.4,2.4,0,1,0-2.39-2.4A2.4,2.4,0,0,0,183.73,14Zm0-3.48a1.09,1.09,0,1,1-1.09,1.08A1.08,1.08,0,0,1,183.73,10.51Z"/><path class="cls-1" d="M218.89,5.21H178.53a1.87,1.87,0,0,0-1.87,1.86V36.7a1.87,1.87,0,0,0,1.87,1.87h40.36a1.87,1.87,0,0,0,1.86-1.87V7.07A1.86,1.86,0,0,0,218.89,5.21Zm-.22,31.27H178.75V17.8h5.37V31.61a.84.84,0,0,0,.84.83h1a.84.84,0,0,0,.84-.83V17.8h3.11V31.61a.84.84,0,0,0,.84.83h1a.84.84,0,0,0,.84-.83V17.8h6.23V31.61a.84.84,0,0,0,.84.83h1a.84.84,0,0,0,.84-.83V17.8h3.11V31.61a.84.84,0,0,0,.84.83h1a.84.84,0,0,0,.84-.83V17.8h3.12V31.61a.83.83,0,0,0,.83.83h1a.83.83,0,0,0,.84-.83V17.8h5.49Zm0-20.77H178.75V7.29h39.92Z"/><path class="cls-1" d="M382.24,32.52a2.39,2.39,0,1,0,2.39-2.4A2.4,2.4,0,0,0,382.24,32.52Zm2.39,1.08a1.09,1.09,0,1,1,1.09-1.08A1.09,1.09,0,0,1,384.63,33.6Z"/><path class="cls-1" d="M364.89,9.74h-3.26v8.85h2.91a4.13,4.13,0,0,0,3.23-1.27,4.59,4.59,0,0,0,1.12-3.14A4.69,4.69,0,0,0,367.8,11,3.66,3.66,0,0,0,364.89,9.74Zm1.29,6.72a2.31,2.31,0,0,1-1.8.8h-.94V11h1.13a2,2,0,0,1,1.71.89,3.67,3.67,0,0,1,.64,2.18A3.4,3.4,0,0,1,366.18,16.46Z"/><path class="cls-1" d="M358.64,14.14l-.37-.15.35-.19a1.58,1.58,0,0,0,.53-.44,2.07,2.07,0,0,0,.48-1.38,2,2,0,0,0-.89-1.73,3.5,3.5,0,0,0-2.13-.65,3.56,3.56,0,0,0-2.15.65,2.8,2.8,0,0,0-1.14,1.65v0h1.62a1.7,1.7,0,0,1,1.63-1,1.72,1.72,0,0,1,1.05.31,1.12,1.12,0,0,1,.4.94,1.06,1.06,0,0,1-.48.95,2.11,2.11,0,0,1-1.19.32h-.83v1.28h1.1a1.63,1.63,0,0,1,1.22.42,1.38,1.38,0,0,1,.41,1,1.21,1.21,0,0,1-.47.95,1.88,1.88,0,0,1-1.24.4,1.81,1.81,0,0,1-1.79-1.1h-1.68A3,3,0,0,0,354.22,18a3.65,3.65,0,0,0,2.32.72A3.8,3.8,0,0,0,359,18a2.3,2.3,0,0,0,.92-1.88,2.07,2.07,0,0,0-.53-1.42A2.17,2.17,0,0,0,358.64,14.14Z"/><path class="cls-1" d="M347.87,23.14h26.22a1,1,0,0,0,1-1V6.23a1,1,0,0,0-1-1H347.87a1,1,0,0,0-1,1V22.1A1,1,0,0,0,347.87,23.14Zm1-15.87H373V21.05H348.91Z"/><path class="cls-1" d="M388.67,5.23h-8.8a2.21,2.21,0,0,0-2.21,2.2v18H349a2.21,2.21,0,0,0-2.21,2.2v8.8A2.21,2.21,0,0,0,349,38.59h39.68a2.21,2.21,0,0,0,2.2-2.21V7.43A2.21,2.21,0,0,0,388.67,5.23Zm.12,31.27H348.87v-9h5.51v4a.81.81,0,0,0,.83.81.86.86,0,0,0,.57-.2.81.81,0,0,0,.27-.61v-4h3.61V29.4a.86.86,0,0,0,.27.61.76.76,0,0,0,.54.23.86.86,0,0,0,.86-.84V27.46h5.22v4a.81.81,0,0,0,.83.81A.86.86,0,0,0,368,32a.78.78,0,0,0,.27-.61v-4h4V29.4a.86.86,0,0,0,.27.61.78.78,0,0,0,.55.23.87.87,0,0,0,.86-.84V27.46h4v4a.81.81,0,0,0,.84.81.86.86,0,0,0,.57-.2.81.81,0,0,0,.27-.61V27.27H384a.81.81,0,0,0,.82-.84.86.86,0,0,0-.2-.57.81.81,0,0,0-.62-.27h-4.24V22.34h1.85a.84.84,0,0,0,.61-.27.77.77,0,0,0,.23-.58.85.85,0,0,0-.84-.82h-1.85V18.36H384a.81.81,0,0,0,.82-.83.86.86,0,0,0-.2-.57.81.81,0,0,0-.62-.27h-4.24V14.06h1.85a.84.84,0,0,0,.61-.27.77.77,0,0,0,.23-.58.85.85,0,0,0-.84-.82h-1.85V10.08H384a.81.81,0,0,0,.82-.84.85.85,0,0,0-.2-.56.78.78,0,0,0-.62-.27h-4.24V7.31h9Z"/><path class="cls-1" d="M458.61,18.47a3.41,3.41,0,0,0-2.44-1,3.45,3.45,0,0,0-3.43,3.46,3.45,3.45,0,1,0,5.87-2.46Zm-2.42,4.67V23a2.1,2.1,0,0,1,0-4.19,2.09,2.09,0,0,1,1.48.61A2.1,2.1,0,0,1,456.19,23Z"/><path class="cls-1" d="M456.19,14.78a6.14,6.14,0,1,0,6.13,6.14A6.14,6.14,0,0,0,456.19,14.78Zm0,10.76a4.63,4.63,0,1,1,4.62-4.62A4.64,4.64,0,0,1,456.19,25.54Z"/><path class="cls-1" d="M439.25,33.47h0a16.11,16.11,0,0,1,3.84-2.72,10.41,10.41,0,0,1,9.59,0,16,16,0,0,1,3.81,2.7c.31.29.66.66,1,1.06,1.31,1.4,2.42,2.58,3.51,2.58h0a2.2,2.2,0,0,0,.36,0c2.53-.64,4.35-3.56,5-8,1-7-1.07-16.09-6.32-19.27-.86-.68-4.19-2.48-11.77,2.42a.81.81,0,0,1-.87,0c-7.55-4.88-10.89-3.11-11.73-2.45-5.28,3.21-7.37,12.33-6.35,19.3.65,4.46,2.47,7.38,5,8,1.21.3,2.48-1.07,3.84-2.51C438.58,34.14,438.94,33.76,439.25,33.47Zm-2.39-.15a13.92,13.92,0,0,1-2.05,1.93l-.07,0-.08,0c-1.69-.53-3-3-3.52-6.48-.91-6.3,1-14.79,5.59-17.53l.11-.09c.11-.09,2.88-2.14,10.62,3.23l.07,0,.2.09.14.05.14-.05a1.39,1.39,0,0,0,.25-.12l.07,0C456,9,458.92,11.19,459,11.21l.15.11c4.57,2.69,6.41,11.17,5.49,17.47-.51,3.51-1.83,5.93-3.52,6.48l-.08,0-.07,0a14.32,14.32,0,0,1-2-1.92c-.42-.44-.8-.86-1.16-1.19-3.93-3.68-7.46-4.23-9.21-4.23l-.62,0c-1.52-.12-5.46.06-9.9,4.21C437.65,32.47,437.27,32.88,436.86,33.32Z"/><path class="cls-1" d="M434.84,21.75h3.53v3.54a.84.84,0,0,0,.84.83.83.83,0,0,0,.83-.83V21.75h3.54a.83.83,0,0,0,.83-.83.84.84,0,0,0-.83-.84H440V16.55a.83.83,0,0,0-.83-.84.84.84,0,0,0-.84.84v3.53h-3.53a.85.85,0,0,0-.84.84A.84.84,0,0,0,434.84,21.75Z"/><path class="cls-1" d="M473.81,3.49H434.13A2.17,2.17,0,0,0,432,5.66v4.73l2-2,0-2.89h.2l39.83,0,0,29.3h-7.38l-1.58,2h8.77A2.18,2.18,0,0,0,476,34.61V5.66A2.17,2.17,0,0,0,473.81,3.49Z"/><polygon class="cls-1" points="457.62 36.78 455.28 34.76 440.55 34.76 438.57 36.78 457.62 36.78"/><path class="cls-1" d="M467.65,38.2H444.44a1,1,0,0,0,0,2.09h23.21a1,1,0,0,0,0-2.09Z"/><polygon class="cls-1" points="285.62 18.39 277.65 12.32 278.38 22.3 280.88 19.63 281.01 19.87 283.27 23.66 284.09 23.22 282.03 19.03 282.27 18.98 285.62 18.39"/><path class="cls-1" d="M267.29,38.24a1,1,0,0,0,0,2h23l-1-2Z"/><path class="cls-1" d="M287.63,34.76H261L261,5.5h.19l39.84,0v5.37l2,.37V5.66a2.17,2.17,0,0,0-2.17-2.17H261.15A2.17,2.17,0,0,0,259,5.66v29a2.17,2.17,0,0,0,2.17,2.17h27.46Z"/><path class="cls-1" d="M308.18,27.84a2.43,2.43,0,0,0-2.08-1.15H289.64a2.45,2.45,0,0,0-2.2,3.53l4.7,9.51a1.05,1.05,0,0,0,.93.56h9.63a1,1,0,0,0,.9-.56l4.7-9.51A2.44,2.44,0,0,0,308.18,27.84Zm-1.68,1.49-4.42,9h-8.42l-4.42-9a.42.42,0,0,1,0-.42.43.43,0,0,1,.38-.21H306.1a.43.43,0,0,1,.4.63Z"/><path class="cls-1" d="M294.9,26.69a4.73,4.73,0,0,1-1.3-2.88V18.75a4.28,4.28,0,1,1,8.55,0v5.06a4.73,4.73,0,0,1-1.3,2.88h2.32a6.82,6.82,0,0,0,.91-2.88V18.75a6.21,6.21,0,1,0-12.42,0v5.06a6.83,6.83,0,0,0,.92,2.88Z"/><line class="cls-1" x1="303.82" y1="23.75" x2="303.39" y2="23.99"/><path class="cls-1" d="M303.31,22.88l-.37.22-.05,0a.78.78,0,0,0-.29.25.84.84,0,0,0-.17.34.69.69,0,0,0,0,.4.61.61,0,0,0,.12.37l.15.21a1,1,0,0,0,.44.25l.27,0a1,1,0,0,0,.5-.14l.38-.21.05,0a1.15,1.15,0,0,0,.46-.6.77.77,0,0,0,0-.4.85.85,0,0,0-.12-.37l-.15-.2a1.13,1.13,0,0,0-.45-.26l-.26,0a1,1,0,0,0-.51.13Z"/><line class="cls-1" x1="302.12" y1="14.6" x2="302.74" y2="13.84"/><path class="cls-1" d="M302.82,15.31l.55-.67.08-.1a.78.78,0,0,0,.21-.32.71.71,0,0,0,.08-.38.74.74,0,0,0-.08-.39.85.85,0,0,0-.21-.32l-.2-.16a1,1,0,0,0-.51-.13l-.26,0a1.13,1.13,0,0,0-.45.26l-.54.67-.08.09a1,1,0,0,0-.29.71.69.69,0,0,0,.08.38.72.72,0,0,0,.21.33l.2.15a1,1,0,0,0,.51.14l.26,0a.92.92,0,0,0,.44-.25Z"/><line class="cls-1" x1="292.62" y1="14.93" x2="292.95" y2="15.18"/><path class="cls-1" d="M292.12,15.79l.28.22.05,0a.81.81,0,0,0,.37.12.78.78,0,0,0,.4,0,.75.75,0,0,0,.34-.18.68.68,0,0,0,.25-.28l.11-.24a1.19,1.19,0,0,0,0-.53l-.11-.24a.93.93,0,0,0-.35-.36l-.29-.21,0,0a.73.73,0,0,0-.38-.11.74.74,0,0,0-.39,0,.7.7,0,0,0-.34.18.77.77,0,0,0-.26.28l-.1.24a1,1,0,0,0,0,.53l.1.24a1,1,0,0,0,.36.36Z"/><path class="cls-1" d="M297.87,17.49a.74.74,0,0,0-.81.68v5a.74.74,0,0,0,.81.68,1,1,0,0,0,.55-.16.66.66,0,0,0,.26-.52v-5A.74.74,0,0,0,297.87,17.49Z"/></g></g></svg>