<svg xmlns="http://www.w3.org/2000/svg" viewBox="0 0 56.12 33.36"><defs><style>.cls-1{fill:#4d4d4d;}</style></defs><g id="Layer_2" data-name="Layer 2"><g id="Слой_1" data-name="Слой 1"><path class="cls-1" d="M54.92,5.22h0a2.53,2.53,0,0,0-2.47-.12L44.09,9.23V1.86A1.87,1.87,0,0,0,42.23,0H1.86A1.87,1.87,0,0,0,0,1.86V31.5a1.87,1.87,0,0,0,1.86,1.86H42.23a1.87,1.87,0,0,0,1.86-1.86V22.62l8.36,4.13a2.56,2.56,0,0,0,2.47-.12,2.53,2.53,0,0,0,1.2-2.16V7.38A2.53,2.53,0,0,0,54.92,5.22ZM42,31.28H2.08V2.08H42Zm12-6.81a.46.46,0,0,1-.22.39.44.44,0,0,1-.24.07.35.35,0,0,1-.2-.05L44.09,20.3V11.55L53.38,7a.43.43,0,0,1,.44,0h0a.46.46,0,0,1,.22.39Z"/><path class="cls-1" d="M7.7,21.67l0,0v6.86a1,1,0,0,0,1.93,0V21.69l0,0a2.38,2.38,0,0,0,0-4.34l0,0,0-.13V4.8a1,1,0,0,0-1.93,0V17.19l0,.12,0,0a2.38,2.38,0,0,0,0,4.34ZM7.62,19.5a1.09,1.09,0,0,1,2.17,0,1.09,1.09,0,1,1-2.17,0Z"/><path class="cls-1" d="M14.92,16l0,0V28.56a1,1,0,0,0,1.93,0V16.18l0-.13,0,0a2.38,2.38,0,0,0,0-4.34l0,0V4.81a1,1,0,0,0-1.93,0v6.86l0,0a2.38,2.38,0,0,0,0,4.34Zm-.1-2.17a1.09,1.09,0,1,1,2.17,0,1.09,1.09,0,0,1-2.17,0Z"/></g></g></svg>